# xmcd CD database file
#
# Track frame offsets:
#	150
#	31100
#	50105
#	83133
#	118188
#	141462
#	153424
#	180292
#	204656
#
# Disc length: 3203 seconds
#
# Revision: 0
# Processed by: cddbd v1.4PL0 Copyright (c) Steve Scherf et al.
# Submitted via: CDex 1.50Beta7
#
DISCID=790c8109
DTITLE=Eudinho Soares - Estrada Do Sol
DYEAR=1995
DGENRE=Jazz
TTITLE0=Post Scriptum
TTITLE1=Influencia Do Jazz
TTITLE2=Aos Nossos Filhos
TTITLE3=Ponteio
TTITLE4=Estrada Do Sol
TTITLE5=Descendo A Serra
TTITLE6=Viola Violar
TTITLE7=Carneval No Rio
TTITLE8=A noite Do Meo Bem
EXTD=YEAR: 1995
EXTT0=
EXTT1=
EXTT2=
EXTT3=
EXTT4=
EXTT5=
EXTT6=
EXTT7=
EXTT8=
PLAYORDER=
